<mxfile host="Electron" modified="2024-02-29T06:35:27.278Z" agent="Mozilla/5.0 (X11; Linux x86_64) AppleWebKit/537.36 (KHTML, like Gecko) draw.io/23.0.2 Chrome/120.0.6099.109 Electron/28.1.0 Safari/537.36" etag="3rzA5AtLMvBxNid-Zacp" version="23.0.2" type="device">
  <diagram id="C5RBs43oDa-KdzZeNtuy" name="Page-1">
    <mxGraphModel dx="1434" dy="846" grid="1" gridSize="10" guides="1" tooltips="1" connect="1" arrows="1" fold="1" page="1" pageScale="1" pageWidth="827" pageHeight="1169" math="0" shadow="0">
      <root>
        <mxCell id="WIyWlLk6GJQsqaUBKTNV-0" />
        <mxCell id="WIyWlLk6GJQsqaUBKTNV-1" parent="WIyWlLk6GJQsqaUBKTNV-0" />
        <mxCell id="M5BF3GIxq9oKaP1s5SKX-2" value="" style="edgeStyle=orthogonalEdgeStyle;rounded=0;orthogonalLoop=1;jettySize=auto;html=1;" parent="WIyWlLk6GJQsqaUBKTNV-1" source="WIyWlLk6GJQsqaUBKTNV-3" target="M5BF3GIxq9oKaP1s5SKX-1" edge="1">
          <mxGeometry relative="1" as="geometry" />
        </mxCell>
        <mxCell id="WIyWlLk6GJQsqaUBKTNV-3" value="Incoming Request" style="rounded=1;whiteSpace=wrap;html=1;fontSize=12;glass=0;strokeWidth=1;shadow=0;" parent="WIyWlLk6GJQsqaUBKTNV-1" vertex="1">
          <mxGeometry x="142.5" y="90" width="165" height="40" as="geometry" />
        </mxCell>
        <mxCell id="M5BF3GIxq9oKaP1s5SKX-4" value="" style="edgeStyle=orthogonalEdgeStyle;rounded=0;orthogonalLoop=1;jettySize=auto;html=1;" parent="WIyWlLk6GJQsqaUBKTNV-1" source="M5BF3GIxq9oKaP1s5SKX-1" target="M5BF3GIxq9oKaP1s5SKX-3" edge="1">
          <mxGeometry relative="1" as="geometry" />
        </mxCell>
        <mxCell id="M5BF3GIxq9oKaP1s5SKX-1" value="Examine Request Headers" style="whiteSpace=wrap;html=1;rounded=1;glass=0;strokeWidth=1;shadow=0;" parent="WIyWlLk6GJQsqaUBKTNV-1" vertex="1">
          <mxGeometry x="145" y="170" width="160" height="50" as="geometry" />
        </mxCell>
        <mxCell id="M5BF3GIxq9oKaP1s5SKX-6" value="" style="edgeStyle=orthogonalEdgeStyle;rounded=0;orthogonalLoop=1;jettySize=auto;html=1;" parent="WIyWlLk6GJQsqaUBKTNV-1" source="M5BF3GIxq9oKaP1s5SKX-3" target="M5BF3GIxq9oKaP1s5SKX-5" edge="1">
          <mxGeometry relative="1" as="geometry" />
        </mxCell>
        <mxCell id="M5BF3GIxq9oKaP1s5SKX-3" value="Parse body to native type based on headers" style="whiteSpace=wrap;html=1;rounded=1;glass=0;strokeWidth=1;shadow=0;" parent="WIyWlLk6GJQsqaUBKTNV-1" vertex="1">
          <mxGeometry x="138.75" y="250" width="172.5" height="50" as="geometry" />
        </mxCell>
        <mxCell id="lqtBfRb-oQzCLpGuk1u_-1" value="" style="edgeStyle=orthogonalEdgeStyle;rounded=0;orthogonalLoop=1;jettySize=auto;html=1;" edge="1" parent="WIyWlLk6GJQsqaUBKTNV-1" source="M5BF3GIxq9oKaP1s5SKX-5" target="lqtBfRb-oQzCLpGuk1u_-0">
          <mxGeometry relative="1" as="geometry" />
        </mxCell>
        <mxCell id="M5BF3GIxq9oKaP1s5SKX-5" value="Forward parsed data to gateway middleware" style="whiteSpace=wrap;html=1;rounded=1;glass=0;strokeWidth=1;shadow=0;" parent="WIyWlLk6GJQsqaUBKTNV-1" vertex="1">
          <mxGeometry x="135" y="340" width="180" height="50" as="geometry" />
        </mxCell>
        <mxCell id="lqtBfRb-oQzCLpGuk1u_-3" value="" style="edgeStyle=orthogonalEdgeStyle;rounded=0;orthogonalLoop=1;jettySize=auto;html=1;" edge="1" parent="WIyWlLk6GJQsqaUBKTNV-1" source="lqtBfRb-oQzCLpGuk1u_-0" target="lqtBfRb-oQzCLpGuk1u_-2">
          <mxGeometry relative="1" as="geometry" />
        </mxCell>
        <mxCell id="lqtBfRb-oQzCLpGuk1u_-0" value="... other processes..." style="whiteSpace=wrap;html=1;rounded=1;glass=0;strokeWidth=1;shadow=0;" vertex="1" parent="WIyWlLk6GJQsqaUBKTNV-1">
          <mxGeometry x="138.75" y="430" width="172.5" height="50" as="geometry" />
        </mxCell>
        <mxCell id="lqtBfRb-oQzCLpGuk1u_-2" value="Return Response" style="whiteSpace=wrap;html=1;rounded=1;glass=0;strokeWidth=1;shadow=0;" vertex="1" parent="WIyWlLk6GJQsqaUBKTNV-1">
          <mxGeometry x="142.5" y="520" width="165" height="40" as="geometry" />
        </mxCell>
      </root>
    </mxGraphModel>
  </diagram>
</mxfile>
